<?xml version="1.0" standalone="no"?>
<!DOCTYPE svg PUBLIC "-//W3C//DTD SVG 20010904//EN"
 "http://www.w3.org/TR/2001/REC-SVG-20010904/DTD/svg10.dtd">
<svg version="1.0" xmlns="http://www.w3.org/2000/svg"
 width="1700.000000pt" height="1700.000000pt" viewBox="0 0 1700.000000 1700.000000"
 preserveAspectRatio="xMidYMid meet">
<metadata>
Created by potrace 1.14, written by Peter Selinger 2001-2017
</metadata>
<g transform="translate(0.000000,1700.000000) scale(0.100000,-0.100000)"
fill="#000000" stroke="none">
<path d="M5507 14574 c-1 -1 -85 -4 -187 -8 -102 -3 -201 -8 -220 -10 -19 -3
-57 -8 -85 -11 -76 -10 -88 -11 -120 -19 -16 -3 -39 -8 -50 -10 -11 -2 -33 -9
-50 -16 -16 -6 -31 -11 -33 -10 -1 1 -23 -8 -48 -20 -50 -25 -70 -49 -89 -112
-11 -39 -11 -49 6 -93 18 -47 18 -52 2 -85 -24 -52 -16 -233 12 -277 18 -26
12 -46 -20 -67 -41 -27 -62 -145 -37 -208 8 -21 19 -38 24 -38 4 0 8 -5 8 -11
0 -9 46 -76 80 -116 5 -7 10 -17 10 -23 0 -19 153 -164 211 -200 43 -27 56
-41 56 -60 1 -36 9 -65 27 -93 9 -13 14 -26 11 -28 -2 -3 -5 -35 -6 -72 -1
-50 4 -76 19 -106 21 -39 21 -42 4 -79 -9 -21 -30 -52 -47 -69 -74 -77 -88
-112 -81 -205 7 -97 41 -163 133 -254 l43 -41 -16 -33 c-21 -42 -14 -158 14
-230 16 -41 95 -142 139 -179 25 -20 43 -45 47 -64 7 -33 63 -129 96 -165 l22
-23 -37 -71 c-48 -92 -53 -154 -19 -249 13 -37 31 -79 38 -94 11 -20 11 -35 4
-63 -13 -45 -4 -125 19 -182 6 -14 8 -29 6 -33 -3 -5 -11 -34 -18 -65 -23
-100 -7 -190 52 -284 l23 -38 -19 -58 c-34 -101 -33 -220 3 -305 7 -18 14 -36
15 -42 1 -5 8 -17 15 -25 9 -10 13 -41 11 -90 -1 -41 4 -96 11 -122 7 -27 10
-48 7 -48 -3 0 0 -7 7 -15 7 -8 9 -15 5 -15 -4 0 -2 -7 5 -15 10 -12 9 -16 -6
-21 -11 -3 -30 -10 -44 -14 -14 -5 -37 -11 -52 -14 -15 -4 -40 -11 -55 -18
-15 -6 -30 -12 -33 -12 -3 -1 -19 -7 -37 -14 -39 -17 -55 -54 -48 -115 6 -47
-6 -85 -30 -99 -22 -13 -52 -82 -48 -108 2 -13 15 -36 28 -50 22 -23 24 -29
14 -65 -15 -54 -5 -179 20 -246 20 -53 20 -55 2 -114 -12 -38 -19 -88 -19
-135 1 -61 -3 -84 -23 -120 -13 -25 -29 -58 -36 -74 -43 -96 -66 -277 -42
-324 10 -18 11 -26 3 -29 -41 -14 -206 -182 -259 -263 -48 -73 -90 -166 -100
-223 -5 -27 -23 -54 -64 -95 -31 -32 -69 -75 -86 -96 -16 -21 -34 -43 -40 -50
-23 -28 -34 -56 -29 -80 7 -38 22 -76 31 -76 5 0 20 -10 35 -23 15 -13 39 -32
54 -43 14 -10 38 -28 53 -39 47 -36 90 -65 96 -65 4 0 21 -11 39 -25 18 -14
37 -25 41 -25 5 0 16 -6 24 -14 9 -8 57 -35 106 -61 84 -43 133 -83 136 -109
1 -6 0 -33 -2 -61 -6 -83 -4 -267 4 -308 4 -21 12 -47 17 -58 6 -10 8 -19 4
-19 -3 0 -1 -7 6 -15 7 -8 9 -15 5 -15 -4 0 -3 -6 2 -12 5 -7 18 -35 28 -63
10 -27 26 -63 35 -80 14 -25 24 -54 35 -95 13 -54 70 -186 91 -210 7 -8 13
-18 13 -22 1 -5 1 -10 1 -13 1 -3 1 -44 1 -92 1 -49 5 -108 9 -133 19 -102 22
-116 32 -127 6 -7 7 -13 3 -13 -4 0 -3 -6 3 -12 7 -10 0 -30 -25 -73 -47 -78
-98 -204 -117 -286 -9 -36 -27 -92 -41 -124 -48 -108 -74 -245 -81 -425 -4
-108 -11 -170 -19 -180 -15 -18 -59 -130 -74 -185 -11 -44 -4 -183 12 -235 1
-3 -19 -28 -45 -55 -89 -94 -100 -112 -107 -173 -7 -67 10 -269 25 -293 3 -5
7 -17 9 -27 7 -39 57 -179 75 -213 11 -20 17 -39 13 -43 -3 -3 -1 -6 5 -6 7 0
11 -3 10 -7 -2 -7 4 -19 40 -78 6 -11 19 -33 28 -50 49 -88 206 -260 309 -340
22 -16 47 -37 56 -45 8 -8 23 -19 31 -25 8 -5 49 -33 89 -61 41 -28 110 -73
154 -99 44 -27 82 -51 85 -54 10 -12 87 -69 165 -123 198 -136 341 -204 625
-298 155 -51 368 -109 455 -123 17 -3 71 -13 120 -21 50 -9 110 -19 135 -22
25 -2 65 -7 90 -10 165 -21 528 -20 690 1 157 20 210 29 310 50 14 3 35 7 48
10 13 2 32 7 42 10 10 3 27 8 37 10 32 8 147 41 168 49 46 18 72 26 110 35 22
6 65 17 95 26 30 8 68 18 84 21 16 2 36 9 45 13 9 5 18 9 21 8 10 -1 106 31
205 69 11 4 22 8 25 9 3 1 23 10 45 20 47 22 44 21 73 30 12 4 22 11 22 16 0
5 5 9 12 9 13 0 167 88 186 107 7 7 16 13 20 13 4 0 21 13 39 28 65 57 76 64
146 99 104 51 131 65 137 72 3 4 32 24 64 46 127 86 304 262 290 288 -4 7 -3
9 1 4 11 -10 114 137 120 173 0 3 9 20 19 39 21 39 23 85 7 134 -7 19 -13 43
-15 53 -7 32 -72 197 -93 234 -11 20 -24 65 -28 100 -4 36 -8 72 -10 80 -2 8
-5 26 -8 40 -3 14 -10 37 -16 52 -6 16 -8 28 -5 28 4 0 2 6 -4 13 -7 9 9 38
59 107 38 52 72 104 75 115 18 54 99 161 194 256 147 146 163 184 164 384 0
82 3 103 18 120 37 39 108 151 137 216 34 75 56 158 67 244 4 41 14 69 30 88
66 79 129 213 148 316 l12 65 94 23 c109 27 106 26 182 51 32 10 70 28 84 39
30 24 30 39 -5 163 -7 25 -18 51 -24 59 -7 8 -11 16 -10 17 5 7 -50 124 -57
124 -4 0 -11 11 -14 25 -4 14 -11 25 -16 25 -6 0 -10 7 -10 15 0 8 -3 15 -8
15 -4 0 -16 16 -26 35 -11 19 -23 35 -27 35 -19 0 -26 65 -12 110 8 25 16 59
19 75 7 46 7 176 -1 215 -11 56 -11 270 0 278 30 21 109 128 139 190 48 95 70
251 50 347 -8 37 -8 59 4 110 7 34 7 82 0 195 -3 48 14 105 54 186 31 62 41
95 43 143 2 36 15 89 30 126 32 80 29 110 -22 280 -3 11 -7 52 -8 90 -3 83 -9
119 -30 169 -9 21 -13 47 -9 59 7 23 54 84 54 71 0 -4 8 0 18 9 10 10 22 14
25 10 4 -3 7 -2 7 4 0 6 11 14 25 17 14 4 25 11 25 16 0 6 5 10 10 10 15 0
117 77 157 118 18 19 44 53 57 76 26 45 58 141 49 150 -7 7 59 46 69 40 4 -3
8 0 8 7 0 7 3 9 7 6 3 -4 15 0 25 10 10 9 18 13 18 10 0 -10 97 56 148 100 15
13 30 23 34 23 3 0 29 31 57 69 51 68 80 131 84 182 2 26 24 58 87 130 16 19
32 42 36 52 3 9 8 17 12 18 4 0 14 2 22 4 8 2 29 6 45 9 17 3 41 8 55 11 14 4
34 8 45 10 11 2 30 6 43 9 23 6 55 14 82 21 8 2 16 4 18 5 2 3 2 3 47 15 17 4
35 12 41 16 6 5 19 10 30 12 10 1 34 10 53 20 19 9 40 17 48 17 7 0 13 5 13
11 0 5 4 8 9 5 5 -3 14 1 21 9 7 8 19 15 26 15 8 0 14 5 14 10 0 6 4 10 10 10
9 0 25 12 74 55 13 11 42 48 65 83 41 62 46 85 27 132 -4 8 -42 39 -86 69 -76
52 -94 71 -69 71 42 0 219 143 219 177 0 7 8 13 18 14 9 0 26 2 37 4 11 2 49
9 85 15 35 6 71 17 79 23 8 7 16 11 17 10 2 -1 12 1 22 4 27 7 66 128 58 179
-11 68 -43 154 -58 154 -4 0 -8 6 -8 13 0 17 -65 104 -111 148 -45 44 -110 97
-161 131 -23 15 -47 33 -54 39 -25 21 9 36 92 43 45 4 92 9 105 11 13 2 44 7
69 10 72 9 113 15 140 20 14 3 39 8 55 11 47 8 182 43 212 55 33 13 53 17 113
25 25 3 54 8 65 12 25 8 23 7 70 17 89 18 191 60 266 111 103 70 132 120 133
224 1 47 -4 62 -32 101 -19 26 -44 51 -58 58 -23 10 -32 40 -17 55 4 4 8 36 9
71 2 54 -2 70 -25 107 -44 69 -133 150 -217 197 -119 67 -121 68 -128 96 -10
41 -44 85 -107 140 -32 28 -74 65 -94 83 -117 104 -374 233 -693 347 -53 20
-104 38 -112 42 -61 25 -108 24 -131 -5 -10 -14 -19 -33 -19 -43 0 -22 -8 -23
-47 -8 -52 20 -725 196 -853 223 -14 3 -72 17 -130 31 -58 15 -112 28 -120 30
-8 1 -148 32 -310 68 -162 36 -320 70 -350 76 -83 17 -84 17 -240 51 -181 39
-650 135 -790 161 -207 39 -315 59 -345 65 -16 3 -66 12 -110 20 -44 8 -96 17
-115 20 -19 2 -82 13 -140 24 -153 28 -993 165 -1065 174 -22 2 -101 14 -175
25 -74 11 -155 23 -180 26 -25 3 -72 10 -105 15 -33 5 -82 12 -110 15 -59 6
-118 14 -154 19 -14 3 -51 7 -81 11 -30 4 -66 8 -80 10 -14 2 -50 6 -80 10
-30 3 -71 8 -90 10 -101 13 -192 23 -280 30 -36 3 -83 7 -105 10 -50 6 -147
14 -244 20 -41 3 -91 7 -110 10 -136 16 -629 35 -1009 38 -117 1 -214 2 -215
1z m-617 -223 c0 -10 -94 -50 -103 -44 -6 3 1 14 14 24 13 9 26 16 29 14 3 -2
12 0 18 4 15 9 42 10 42 2z m320 -227 c-19 -7 -32 -11 -45 -14 -5 -1 -16 -6
-22 -12 -14 -11 -43 -4 -43 11 0 5 15 11 33 13 64 6 92 7 77 2z m-344 -115
c19 -22 19 -22 -3 -8 -13 8 -23 17 -23 21 0 12 6 9 26 -13z m34 -406 c31 -28
35 -39 21 -61 -7 -11 -17 -8 -50 13 -47 31 -45 29 -29 55 17 26 22 25 58 -7z
m6437 -359 c-3 -3 -12 -4 -19 -1 -8 3 -5 6 6 6 11 1 17 -2 13 -5z m158 -34 c3
-6 -1 -7 -9 -4 -18 7 -21 14 -7 14 6 0 13 -4 16 -10z m68 -17 c-7 -2 -19 -2
-25 0 -7 3 -2 5 12 5 14 0 19 -2 13 -5z m44 -9 c-3 -3 -12 -4 -19 -1 -8 3 -5
6 6 6 11 1 17 -2 13 -5z m137 -28 c55 -14 144 -34 196 -46 52 -12 120 -29 150
-36 30 -8 66 -17 80 -20 14 -3 86 -21 160 -40 74 -19 146 -37 160 -40 43 -9
491 -132 630 -173 132 -39 360 -129 330 -131 -8 -1 -49 -1 -90 0 -67 1 -88 7
-205 57 -247 105 -659 228 -1365 407 -96 24 -169 45 -161 45 7 1 59 -10 115
-23z m1404 -181 c24 -10 41 -19 39 -21 -5 -5 -209 66 -221 77 -10 9 122 -32
182 -56z m785 6 c21 -13 36 -26 33 -28 -7 -7 -60 23 -81 48 -11 12 -13 18 -5
13 8 -5 32 -20 53 -33z m-2506 23 c-3 -3 -12 -4 -19 -1 -8 3 -5 6 6 6 11 1 17
-2 13 -5z m80 -20 c-3 -3 -12 -4 -19 -1 -8 3 -5 6 6 6 11 1 17 -2 13 -5z m40
-10 c-3 -3 -12 -4 -19 -1 -8 3 -5 6 6 6 11 1 17 -2 13 -5z m40 -10 c-3 -3 -12
-4 -19 -1 -8 3 -5 6 6 6 11 1 17 -2 13 -5z m58 -14 c13 -5 14 -9 5 -9 -8 0
-24 4 -35 9 -13 5 -14 9 -5 9 8 0 24 -4 35 -9z m110 -31 c14 -6 9 -7 -15 -3
-19 4 -44 11 -55 15 -14 6 -9 7 15 3 19 -4 44 -11 55 -15z m-1238 -5 c-3 -3
-12 -4 -19 -1 -8 3 -5 6 6 6 11 1 17 -2 13 -5z m40 -10 c-3 -3 -12 -4 -19 -1
-8 3 -5 6 6 6 11 1 17 -2 13 -5z m53 -15 c0 -4 -7 -6 -15 -3 -8 4 -15 10 -15
15 0 4 7 6 15 3 8 -4 15 -10 15 -15z m1426 -49 c316 -92 425 -128 393 -129
-14 -1 -52 8 -85 19 -32 11 -59 20 -59 20 0 -1 -7 1 -15 4 -8 3 -87 28 -175
55 -280 86 -320 99 -309 100 6 1 118 -30 250 -69z m-1316 29 c17 -10 -39 -1
-80 12 -16 6 -10 7 20 3 25 -4 52 -10 60 -15z m3071 -13 c50 -22 173 -120 178
-141 2 -15 -2 -13 -21 8 -13 14 -64 53 -113 86 -93 64 -99 70 -44 47z m-8562
-250 c-2 -2 -13 8 -23 22 l-19 27 24 -22 c12 -12 21 -24 18 -27z m9104 -8 c95
-58 130 -85 141 -108 4 -8 13 -26 21 -39 7 -14 12 -28 9 -33 -3 -4 -59 19
-125 53 -67 33 -146 71 -177 85 -48 22 -54 27 -37 34 11 4 31 19 45 33 14 14
28 25 31 26 3 1 44 -23 92 -51z m-178 -298 c3 -6 0 -10 -7 -11 -7 0 -35 -4
-61 -8 l-48 -8 6 31 c14 70 12 69 60 36 24 -17 47 -35 50 -40z m409 -118 c49
-33 54 -68 18 -107 -20 -22 -58 -45 -82 -49 -3 -1 -9 -4 -15 -8 -8 -5 -51 -18
-110 -34 -47 -13 -159 -35 -200 -40 -27 -3 -70 -13 -95 -21 -25 -8 -52 -16
-60 -18 -8 -2 -33 -8 -55 -14 -22 -6 -58 -13 -80 -17 -22 -3 -43 -8 -47 -11
-5 -2 -8 -2 -8 1 0 13 51 37 91 42 94 12 241 67 297 111 64 50 102 87 107 103
5 17 25 29 60 36 6 1 24 8 40 15 17 6 35 13 42 15 6 1 19 7 30 13 24 14 22 14
67 -17z m-9315 -100 c36 -35 38 -40 26 -62 -7 -14 -11 -28 -9 -32 3 -4 -2 -5
-10 -2 -9 3 -16 12 -16 20 0 8 -4 14 -9 14 -5 0 -12 10 -16 23 -11 34 -17 77
-10 77 3 0 23 -17 44 -38z m8546 -12 c-4 -6 -10 -8 -14 -6 -4 3 -31 2 -59 -3
-46 -7 -62 -4 -48 10 10 10 127 9 121 -1z m-8306 -175 l30 -26 -21 -35 c-24
-40 -31 -37 -68 30 -17 31 -19 41 -8 47 21 14 35 10 67 -16z m8020 -550 c24
-22 51 -48 60 -59 9 -10 21 -23 26 -30 50 -54 85 -151 62 -172 -15 -14 -87
-28 -88 -17 -6 66 -46 132 -128 212 l-80 79 16 40 16 41 36 -27 c20 -15 56
-45 80 -67z m-1199 -148 c59 -39 56 -37 41 -46 -11 -7 -66 10 -191 61 l-25 10
35 13 c42 14 74 6 140 -38z m-6566 -29 c-10 -16 -42 -7 -68 18 -24 24 -25 28
-9 39 14 10 22 7 49 -19 18 -17 30 -34 28 -38z m7660 -87 c18 -33 10 -45 -29
-48 -16 -1 -59 -4 -93 -7 -58 -5 -63 -4 -57 12 4 9 10 27 12 40 3 12 9 22 14
22 5 0 9 7 9 16 0 9 10 32 22 52 l21 35 44 -47 c24 -26 50 -60 57 -75z m-7864
-426 c-16 -19 -20 -15 -26 27 l-6 33 23 -22 c19 -18 20 -24 9 -38z m7704 -128
l59 -40 -35 -31 c-54 -48 -81 -66 -95 -66 -7 0 -13 -4 -13 -10 0 -5 -3 -9 -7
-8 -5 1 -35 -11 -67 -25 -53 -24 -190 -70 -246 -83 -38 -8 -65 -14 -95 -20
-16 -3 -39 -8 -50 -11 -19 -5 -19 -5 2 18 29 33 60 97 68 142 6 30 13 38 34
43 22 5 42 10 111 29 86 23 233 86 245 105 7 12 8 11 89 -43z m-1369 -47 c-3
-5 -12 -10 -18 -10 -7 0 -6 4 3 10 19 12 23 12 15 0z m-4447 -35 c5 -4 -22 -9
-40 -6 -35 4 -73 13 -78 18 -6 7 111 -5 118 -12z m5042 -80 c0 -2 -12 -16 -27
-31 -25 -25 -27 -26 -40 -8 -18 25 -16 32 10 36 40 6 57 7 57 3z m-550 -105
c25 -14 24 -14 -25 -22 -35 -5 -52 -3 -57 5 -12 19 -9 25 15 29 31 5 38 4 67
-12z m-654 -83 c11 -11 -49 -8 -66 3 -11 7 -4 9 22 7 21 -2 41 -6 44 -10z
m-5151 -137 c-3 -5 -12 -10 -18 -10 -7 0 -6 4 3 10 19 12 23 12 15 0z m154
-64 c-2 -2 -15 -9 -29 -15 -24 -11 -24 -11 -6 3 16 13 49 24 35 12z m6002
-254 c-6 -2 -17 -9 -24 -15 -7 -7 -24 -18 -37 -26 -14 -8 -36 -21 -50 -29 -14
-8 -7 1 14 19 22 19 51 46 65 60 22 23 27 24 35 11 6 -11 5 -17 -3 -20z
m-5791 -237 c17 -9 30 -18 30 -20 0 -5 -70 22 -79 30 -10 11 22 4 49 -10z
m-235 -85 c3 -5 1 -10 -4 -10 -6 0 -11 5 -11 10 0 6 2 10 4 10 3 0 8 -4 11
-10z m770 -378 c28 -11 43 -22 35 -23 -68 -7 -101 -3 -147 18 -29 12 -53 24
-53 26 0 12 124 -4 165 -21z m-1468 -56 c23 -22 40 -43 37 -47 -2 -4 -30 -20
-62 -35 -31 -15 -61 -30 -66 -32 -5 -3 -6 0 -2 6 4 7 3 12 -3 12 -14 0 -4 86
15 121 17 33 20 33 81 -25z m244 -183 c1 -5 3 -28 4 -53 3 -41 1 -46 -19 -48
-21 -1 -23 2 -19 36 2 20 4 45 4 55 0 16 28 25 30 10z m-485 -346 c-14 -111
-41 -187 -65 -187 -18 0 -2 128 23 184 29 66 50 67 42 3z m1364 -71 c3 -5 -3
-10 -12 -12 -9 -1 -36 -5 -60 -9 -68 -12 -141 -11 -145 1 -2 6 2 11 9 11 21 1
113 15 116 18 7 6 88 -1 92 -9z m-490 -80 c0 -3 -4 -8 -10 -11 -5 -3 -10 -1
-10 4 0 6 5 11 10 11 6 0 10 -2 10 -4z m1030 -204 c0 -5 -7 -9 -15 -9 -8 0
-12 4 -9 9 3 4 9 8 15 8 5 0 9 -4 9 -8z m-2007 -125 c-18 -38 -32 -50 -100
-84 -99 -50 -126 -66 -135 -78 -4 -5 -10 -7 -13 -4 -11 11 68 114 142 188 l76
73 25 -26 26 -26 -21 -43z m5951 -93 c4 -11 -20 -34 -37 -34 -10 0 -13 50 -3
53 16 6 34 -2 40 -19z m-6114 -191 c0 -5 -7 -30 -16 -58 -8 -27 -17 -81 -19
-120 -2 -38 -7 -69 -12 -69 -8 1 -28 33 -68 106 -27 52 -31 68 -14 68 6 0 17
6 24 13 33 29 45 37 53 37 5 0 15 7 22 15 13 16 30 20 30 8z m335 -103 c2 -8
4 -19 6 -25 4 -13 -29 -75 -40 -75 -10 0 -12 128 -3 162 4 18 7 16 19 -13 8
-19 16 -41 18 -49z m1222 12 l23 -17 -36 -2 c-19 -1 -48 3 -62 9 -24 9 -25 11
-9 17 34 13 62 10 84 -7z m-376 -94 c14 -15 16 -24 8 -34 -13 -15 -39 -11 -75
12 l-27 18 34 12 c19 7 36 13 38 13 2 1 12 -9 22 -21z m-1431 -18 c0 -12 52
-94 63 -98 4 -2 7 -8 7 -14 0 -5 6 -15 13 -22 6 -7 23 -28 37 -46 14 -19 41
-51 61 -72 20 -20 36 -43 36 -50 0 -7 3 -20 5 -28 3 -8 3 -12 1 -7 -3 4 -9 7
-14 7 -6 0 -22 8 -37 19 -15 10 -61 40 -102 67 -111 71 -193 136 -183 143 4 3
28 30 52 59 41 50 61 64 61 42z m5210 -27 c34 -22 34 -23 10 -23 -14 -1 -44
-3 -67 -6 -34 -4 -52 1 -93 24 -27 16 -48 31 -46 33 2 2 40 2 83 -1 58 -4 87
-11 113 -27z m-4805 -77 c1 -25 -2 -46 -6 -46 -9 0 -11 8 -12 45 -1 71 13 72
18 1z m714 -53 c1 -7 -5 -13 -13 -13 -7 0 -19 -7 -26 -15 -7 -8 -16 -12 -21
-9 -5 3 -9 0 -9 -5 0 -6 -7 -11 -15 -11 -8 0 -15 -5 -15 -11 0 -6 -7 -4 -15 5
-29 29 -12 73 40 102 16 9 25 7 47 -10 15 -11 27 -27 27 -33z m1824 -337 c75
-4 147 -9 160 -12 12 -2 38 -7 57 -10 73 -12 40 -15 -105 -10 -245 10 -423 25
-408 34 13 8 105 7 296 -2z m2867 -71 c27 -20 30 -25 14 -25 -17 0 -54 31 -54
45 0 8 5 6 40 -20z m-327 -87 c37 -22 65 -43 62 -47 -2 -5 -17 -11 -32 -14
-21 -4 -47 7 -111 46 -46 28 -86 55 -89 60 -3 6 -1 7 5 4 5 -4 21 -3 34 2 25
10 28 8 131 -51z m827 -318 c0 -5 -5 -10 -11 -10 -5 0 -7 5 -4 10 3 6 8 10 11
10 2 0 4 -4 4 -10z m-1357 -94 c10 -8 14 -17 8 -20 -11 -7 -56 9 -66 23 -9 16
37 13 58 -3z m1521 -172 c-6 -47 -25 -85 -32 -64 -3 8 -9 18 -15 21 -12 9 21
79 38 79 10 0 12 -11 9 -36z m156 -148 c0 -4 10 -29 23 -55 25 -51 29 -85 10
-87 -7 -1 -14 -2 -15 -4 -3 -2 -18 -5 -56 -14 -12 -3 -27 -8 -32 -11 -6 -3
-10 3 -10 15 0 12 -7 34 -15 50 -14 28 -13 32 22 96 l36 66 18 -23 c10 -13 19
-28 19 -33z m-1273 -2 c-11 -11 -56 -13 -63 -3 -4 8 -3 9 4 5 7 -4 20 -3 29 3
16 9 40 5 30 -5z m924 -124 c-76 -69 -118 -100 -135 -100 -19 0 1 32 41 66 26
21 60 52 77 68 28 27 30 28 37 10 5 -14 0 -26 -20 -44z m-751 -144 c0 -2 -7
-7 -16 -10 -8 -3 -12 -2 -9 4 6 10 25 14 25 6z m764 -144 c-4 -9 -8 -22 -9
-27 -3 -14 -41 -92 -64 -133 l-19 -34 2 48 c1 26 -1 70 -4 97 -7 49 -7 49 29
63 20 8 43 18 51 23 18 10 26 -11 14 -37z m-964 -35 c-7 -7 -88 -12 -94 -6 -3
3 18 7 46 8 29 1 50 0 48 -2z m738 -69 c-3 -21 -5 -21 -21 9 -16 30 -16 33 1
42 13 8 18 6 20 -10 2 -10 2 -29 0 -41z m-4175 -25 c-7 -2 -19 -2 -25 0 -7 3
-2 5 12 5 14 0 19 -2 13 -5z m4093 -191 c-8 -15 -27 -41 -43 -58 -15 -16 -23
-23 -17 -15 7 9 22 37 34 63 12 27 26 45 31 42 5 -3 3 -17 -5 -32z m58 -226
c-1 -12 -3 -33 -3 -47 -1 -21 -8 -28 -38 -37 -29 -9 -39 -9 -45 1 -16 25 -7
49 35 90 43 44 57 42 51 -7z m-1279 35 c-3 -3 -13 -6 -22 -7 -9 -2 -28 -6 -42
-9 -24 -6 -25 -5 -7 8 17 12 83 20 71 8z m1115 -305 c0 -7 -13 -28 -30 -46
-33 -37 -35 -35 -19 19 7 25 17 37 30 38 10 1 19 -4 19 -11z m-4988 -102 c-21
-29 -39 -37 -45 -20 -8 20 35 67 50 54 10 -8 9 -15 -5 -34z m4458 11 c0 -7 5
-15 10 -17 21 -7 19 -52 -6 -99 -13 -27 -28 -49 -33 -49 -15 0 -18 122 -4 158
12 32 33 36 33 7z m546 -167 c-6 -64 -29 -110 -34 -65 -4 36 -7 51 -15 64 -6
9 37 63 51 63 1 0 1 -28 -2 -62z m-1163 -15 c-6 -15 -49 -18 -58 -4 -3 5 5 11
17 13 40 6 46 5 41 -9z m-3031 -49 c75 -43 255 -130 363 -175 44 -18 96 -42
115 -52 19 -11 51 -29 70 -39 19 -10 26 -17 15 -14 -230 50 -273 68 -461 192
-65 43 -121 81 -124 84 -3 3 -16 14 -30 23 -44 30 -10 18 52 -19z m3754 -164
c-12 -28 -55 -100 -59 -100 -2 0 -4 6 -4 13 0 6 -4 19 -7 28 -5 10 5 31 29 58
19 24 35 48 36 54 0 7 4 3 8 -8 5 -11 3 -31 -3 -45z m-2831 -40 c3 -6 -1 -7
-9 -4 -18 7 -21 14 -7 14 6 0 13 -4 16 -10z m1430 -35 l57 -40 -38 -17 c-22
-9 -64 -19 -94 -23 -30 -3 -71 -8 -90 -10 -19 -3 -123 -8 -231 -11 l-196 -7
-119 31 c-231 60 -234 57 43 57 241 0 320 5 438 29 17 4 48 9 70 12 22 4 49
10 60 14 29 11 37 8 100 -35z m-2167 -209 c114 -43 417 -185 410 -191 -2 -2
-25 1 -53 6 -299 54 -272 43 -512 203 -68 44 -123 84 -123 88 0 4 35 -8 78
-26 42 -18 132 -54 200 -80z m-940 -3 c89 -88 111 -108 202 -179 162 -126 427
-278 642 -368 59 -25 119 -52 135 -61 26 -15 27 -15 3 -9 -52 13 -275 97 -362
135 -90 40 -271 131 -338 171 -199 119 -400 276 -400 312 0 13 31 76 37 76 2
0 38 -35 81 -77z m3828 -291 c-2 -9 -8 -18 -14 -20 -13 -4 -16 17 -6 43 8 20
23 2 20 -23z m-4482 -40 c3 -24 11 -62 17 -85 6 -23 13 -53 16 -67 2 -14 13
-44 23 -67 10 -24 17 -43 14 -43 -3 0 4 -15 15 -33 11 -19 18 -37 14 -40 -3
-4 -1 -7 5 -7 7 0 12 -9 12 -20 0 -11 4 -20 9 -20 8 0 12 -11 26 -62 5 -16 5
-18 3 -21 -2 -2 3 -11 10 -19 7 -9 15 -24 17 -34 7 -33 67 -189 76 -198 5 -6
9 -15 9 -20 0 -9 -17 8 -58 59 -46 58 -179 295 -165 295 3 0 1 6 -5 13 -16 19
-51 158 -58 229 -5 55 -8 143 -5 188 2 28 19 -5 25 -48z m4112 44 c8 -8 14
-17 14 -20 0 -8 -127 -65 -215 -96 -70 -25 -117 -39 -225 -67 -40 -11 -150 -7
-215 7 l-60 13 40 10 c22 5 76 20 120 34 44 14 87 26 97 28 9 2 30 11 47 19
17 9 34 17 38 17 15 2 38 11 80 31 23 10 54 21 70 24 15 3 30 7 32 10 2 2 40
4 83 4 56 0 84 -4 94 -14z m-2555 -39 c52 -21 105 -47 119 -58 25 -19 24 -19
-27 1 -48 18 -222 104 -197 98 5 -2 53 -20 105 -41z m-624 -148 c363 -206 885
-379 1333 -444 14 -2 42 -6 63 -9 72 -11 103 -15 182 -21 113 -9 179 -13 265
-16 l75 -2 -85 -6 c-98 -7 -439 -5 -538 3 -136 11 -239 23 -267 30 -77 19
-209 57 -218 63 -5 3 -20 7 -31 9 -19 2 -133 41 -196 67 -14 5 -30 11 -35 12
-59 13 -346 154 -375 185 -3 3 -16 11 -30 18 -34 18 -196 132 -187 132 3 0 23
-10 44 -21z m2153 -54 c39 -7 41 -10 20 -15 -47 -11 -300 4 -300 19 0 9 228 6
280 -4z m2081 -7 c5 -67 3 -73 -26 -88 -17 -8 -33 -19 -36 -24 -4 -5 -10 6
-14 23 -6 27 -3 35 19 52 13 11 28 28 31 39 9 27 25 25 26 -2z m-256 -27 c-3
-6 -11 -11 -17 -11 -6 0 -6 6 2 15 14 17 26 13 15 -4z m-4611 -63 c36 -38 124
-139 141 -163 58 -82 200 -229 310 -320 33 -27 62 -52 65 -56 3 -3 52 -43 110
-88 58 -45 114 -89 125 -99 11 -9 76 -53 143 -99 68 -46 121 -83 117 -83 -13
0 -233 115 -334 174 -89 53 -291 196 -335 237 -7 8 -41 41 -75 73 -34 33 -85
86 -114 119 -29 33 -60 67 -69 76 -10 8 -18 20 -18 26 0 5 -14 23 -30 39 -17
16 -30 35 -30 42 0 7 -4 14 -9 16 -10 3 -25 118 -16 118 4 0 12 -6 19 -12z
m400 -94 c3 -7 1 -14 -4 -14 -6 0 -10 5 -10 12 0 6 -15 25 -32 40 l-33 29 37
-26 c20 -14 39 -33 42 -41z m4578 -44 c9 -25 22 -68 29 -96 11 -48 10 -53 -20
-117 -18 -37 -32 -69 -31 -72 0 -3 -9 -14 -20 -25 -12 -12 -18 -26 -14 -33 4
-7 4 -9 -1 -5 -11 10 -48 -39 -39 -53 4 -7 3 -9 -4 -5 -6 3 -41 -24 -79 -61
-38 -38 -79 -76 -92 -87 -24 -18 -24 -18 -16 0 22 53 75 211 75 226 0 9 9 19
19 23 32 10 41 52 42 193 1 77 4 102 14 102 7 0 15 4 17 8 5 13 93 61 99 54 3
-4 13 -27 21 -52z m-1012 36 c0 -2 3 -12 7 -22 4 -12 3 -15 -5 -10 -7 4 -12 2
-12 -3 0 -6 -3 -10 -7 -9 -5 0 -26 -7 -48 -17 -22 -10 -42 -19 -45 -20 -12 -4
-64 -26 -72 -32 -6 -3 -5 4 1 16 7 11 18 21 26 21 8 0 15 5 15 11 0 5 4 8 9 5
5 -4 11 -3 13 1 3 8 98 61 111 62 4 1 7 -1 7 -3z m-359 -103 c-6 -10 -23 -30
-39 -45 -26 -26 -34 -27 -135 -29 -59 -2 -110 0 -114 4 -3 4 0 7 8 8 14 1 23
2 69 14 14 4 32 8 40 9 8 2 35 9 60 16 57 17 52 16 70 23 13 5 40 14 48 16 1
1 -2 -7 -7 -16z m-301 -73 c0 -5 -5 -10 -11 -10 -5 0 -7 5 -4 10 3 6 8 10 11
10 2 0 4 -4 4 -10z m1061 -337 c-18 -31 -45 -60 -73 -78 l-27 -17 15 34 c27
58 30 62 55 69 38 11 40 10 30 -8z m-436 -85 c-27 -94 -34 -102 -103 -133 -37
-17 -69 -30 -72 -30 -3 -1 -15 -6 -27 -13 -13 -7 -23 -10 -23 -6 0 3 -7 1 -15
-6 -8 -7 -15 -10 -15 -6 0 4 -13 0 -30 -9 -16 -9 -30 -13 -30 -9 0 4 -7 1 -15
-6 -8 -7 -15 -10 -15 -6 0 3 -11 1 -25 -4 -14 -5 -36 -12 -48 -14 -43 -9 -63
-14 -107 -26 -25 -7 -52 -13 -60 -15 -8 -2 -28 -8 -44 -15 -24 -9 -209 -15
-306 -11 -25 2 -24 2 5 15 17 8 53 24 80 37 28 12 53 22 58 21 4 -1 7 2 7 8 0
5 9 10 20 10 11 0 20 5 20 11 0 5 5 7 10 4 6 -3 10 -2 10 3 0 4 16 14 35 22
19 8 35 17 35 22 0 4 6 8 14 8 7 0 19 6 25 14 11 14 68 32 129 41 45 7 83 14
112 20 14 3 36 8 50 11 14 3 33 7 42 10 9 3 25 6 35 8 10 2 43 11 73 20 30 9
58 16 62 16 4 1 22 7 40 15 18 8 43 14 56 15 20 0 22 -4 17 -22z m-2558 -132
c67 -17 125 -34 128 -38 4 -4 -17 -1 -47 7 -29 7 -87 20 -129 29 -42 9 -85 24
-95 32 -18 15 -18 15 1 8 11 -4 75 -21 142 -38z m-272 -116 c3 -6 -1 -7 -9 -4
-18 7 -21 14 -7 14 6 0 13 -4 16 -10z m135 -60 c52 -23 104 -45 115 -50 45
-20 208 -74 320 -106 82 -23 104 -32 70 -28 -27 3 -68 7 -90 10 -22 2 -50 6
-62 8 -11 3 -43 8 -70 11 -62 9 -403 179 -403 202 0 3 6 3 13 0 6 -3 55 -24
107 -47z"/>
</g>
</svg>
